# xmcd
#
# Track frame offsets: 
#        150
#        26305
#        47735
#        67404
#        82726
#        100141
#        115993
#        136388
#        152245
#        170187
#        187062
#        207085
#        224433
#        244033
#        257377
#        274552
#        295027
#        311302
#        329377
#        344420
#
# Disc length: 4789 seconds
#
# Revision: 0
# Processed by: cddbd v1.5.2PL0 Copyright (c) Steve Scherf et al.
# Submitted via: ExactAudioCopy v1.0b3
#
DISCID=2712b314
DTITLE=Patricia Kaas - Patricia Kaas Greatest Hits II
DYEAR=2001
DGENRE=Vocal
TTITLE0=Ma Liberte Contre la Tienne
TTITLE1=Une femme comme 
TTITLE2=Quand J'Ai Peur de Tout
TTITLE3=Chanson simple
TTITLE4=Les Mannequins
TTITLE5=Une Fille de I'est
TTITLE6=Mon Chercheur d'Or
TTITLE7=Rien Ne S'Arrête
TTITLE8=What now my love
TTITLE9=Don t Begin
TTITLE10=If you go away
TTITLE11=ou sont les hommes
TTITLE12=la nuit est mauve
TTITLE13=jeit aimi
TTITLE14=ET s'il
TTITLE15=Une derniere fois
TTITLE16=Je T'aime encore
TTITLE17=Kabaret
TTITLE18=мне нравиться
TTITLE19=не позвонишь
EXTD=
EXTT0=
EXTT1=
EXTT2=
EXTT3=
EXTT4=
EXTT5=
EXTT6=
EXTT7=
EXTT8=
EXTT9=
EXTT10=
EXTT11=
EXTT12=
EXTT13=
EXTT14=
EXTT15=
EXTT16=
EXTT17=
EXTT18=
EXTT19=
PLAYORDER=
